<svg xmlns="http://www.w3.org/2000/svg" xmlns:xlink="http://www.w3.org/1999/xlink" viewBox="0,0,256,256" width="100px" height="100px" fill-rule="nonzero"><g fill-opacity="0" fill="#dddddd" fill-rule="nonzero" stroke="none" stroke-width="1" stroke-linecap="butt" stroke-linejoin="miter" stroke-miterlimit="10" stroke-dasharray="" stroke-dashoffset="0" font-family="none" font-weight="none" font-size="none" text-anchor="none" style="mix-blend-mode: normal"><path d="M0,256v-256h256v256z" id="bgRectangle"></path></g><g fill="none" fill-rule="nonzero" stroke="none" stroke-width="none" stroke-linecap="butt" stroke-linejoin="miter" stroke-miterlimit="10" stroke-dasharray="" stroke-dashoffset="0" font-family="none" font-weight="none" font-size="none" text-anchor="none" style="mix-blend-mode: normal"><g transform="scale(2.56,2.56)"><path d="M27,83.9375c-10.47656,0 -19,-8.52344 -19,-19v-25.875c0,-10.47656 8.52344,-19 19,-19h50c10.47656,0 19,8.52344 19,19v25.875c0,10.47656 -8.52344,19 -19,19z" fill="#9580ff" stroke="none" stroke-width="1" opacity="0.35"></path><path d="M25,81.9375c-10.47656,0 -19,-8.52344 -19,-19v-25.875c0,-10.47656 8.52344,-19 19,-19h50c10.47656,0 19,8.52344 19,19v25.875c0,10.47656 -8.52344,19 -19,19z" fill="#9580ff" stroke="none" stroke-width="1"></path><path d="M87.5,62.9375c0,6.90357 -5.59643,12.5 -12.5,12.5h-50c-6.90357,0 -12.5,-5.59643 -12.5,-12.5v-25.875c0,-6.90357 5.59643,-12.5 12.5,-12.5h50c6.90357,0 12.5,5.59643 12.5,12.5z" fill="#27b0c1" stroke="#9580ff" stroke-width="3"></path></g></g></svg>