<svg xmlns="http://www.w3.org/2000/svg" xmlns:xlink="http://www.w3.org/1999/xlink" viewBox="0,0,256,256" width="64px" height="64px" fill-rule="nonzero"><g fill="none" fill-rule="nonzero" stroke="none" stroke-width="none" stroke-linecap="none" stroke-linejoin="none" stroke-miterlimit="10" stroke-dasharray="" stroke-dashoffset="0" font-family="none" font-weight="none" font-size="none" text-anchor="none" style="mix-blend-mode: normal"><g transform="scale(4,4)"><path d="M50.025,35.395l-31.779,18.056c-2.787,1.584 -6.246,-0.429 -6.246,-3.635v-35.595c0,-3.222 3.477,-5.246 6.278,-3.654l31.747,18.038c2.634,1.497 2.634,5.293 0,6.79z" fill="#9580ff" stroke="none" stroke-width="1" stroke-linecap="butt" stroke-linejoin="miter"></path><path d="M44.192,32.958l-25.345,14.4c-2.323,1.32 -3.166,4.217 -1.983,6.578c0.466,-0.079 0.932,-0.231 1.381,-0.486l31.779,-18.056c0.342,-0.194 0.638,-0.429 0.891,-0.691c-1.401,-2.292 -4.37,-3.083 -6.723,-1.745z" fill-opacity="0" fill="#000000" stroke="none" stroke-width="1" stroke-linecap="butt" stroke-linejoin="miter" opacity="0.15"></path><path d="M17,33v-15.69c0,-0.767 0.827,-1.248 1.494,-0.87l3.443,1.956c2.401,1.365 5.45,0.523 6.814,-1.879l-10.472,-5.95c-2.802,-1.592 -6.279,0.432 -6.279,3.654v23.776c2.76,0 5,-2.236 5,-4.997z" fill="#ffffff" stroke="none" stroke-width="1" stroke-linecap="butt" stroke-linejoin="miter" opacity="0.3"></path><ellipse cx="32" cy="60.978" rx="20.125" ry="3" fill-opacity="0" fill="#000000" stroke="none" stroke-width="1" stroke-linecap="butt" stroke-linejoin="miter" opacity="0.3"></ellipse><path d="M15.5,19.5v7" fill="none" stroke="#ffffff" stroke-width="3" stroke-linecap="round" stroke-linejoin="round"></path></g></g></svg>